<svg style="max-height: 500px" color-interpolation-filters="sRGB" preserveAspectRatio="xMidYMid meet" viewBox="56 89 227.99999999999997 72" xmlns:xlink="http://www.w3.org/1999/xlink" xmlns="http://www.w3.org/2000/svg" version="1.0" data-v-0dd9719b="" width="227.99999999999997" height="72"> <rect class="background" fill-opacity="1" fill="#ffffff" height="100%" width="100%" y="0" x="0" data-v-0dd9719b=""/> <rect class="watermarklayer" fill-opacity="1" fill="url(#watermark)" height="100%" width="100%" y="0" x="0" data-v-0dd9719b=""/> <g transform="translate(57.50499725341797,90.40773010253906)" class="iconbordersvg" fill="#333333" data-v-0dd9719b=""><g data-gra="graph-icon-name"><g><rect stroke="rgb(51, 51, 51)" fill-opacity="0" height="69.18453979492188" width="224.99000549316406" y="0" x="0" class="i-icon-bg" stroke-width="0" data-gra="graph-name-bg"/>   </g> <g transform="translate(0,0)"><g mask="url(#6da613aa-8e8c-45ad-9823-b16a8605316c)" transform="translate(0,0)" data-gra="graph-icon"><g><rect fill-opacity="1" height="69.18453979492188" width="56" y="0" x="0" fill="#1684ac" class="i-icon-bg" stroke-width="2" data-gra="graph-name-bg"/>   </g> <g transform="translate(5,5)"><g class="iconsvg-imagesvg"><g> <svg style="overflow: visible;" class="image-svg-svg primary" height="59.18453996886379" width="46" y="0" x="0" filter="url(#colors8444753038)"><svg viewBox="3.9850001335144043 0.5406791567802429 24.030607223510742 30.918306350708008" xmlns="http://www.w3.org/2000/svg"><path overflow="visible" font-family="sans-serif" font-weight="400" color="#000" d="M4.235 5.594a.5.5 0 0 0-.25.433V22.65a.5.5 0 0 0 .25.432l14.392 8.31a.5.5 0 0 0 .5 0l8.637-4.986a.5.5 0 0 0 .25-.432V9.392a.5.5 0 0 0-.25-.474L13.369.608a.505.505 0 0 0-.242-.067.485.485 0 0 0-.218.043zm8.884-3.975l13.393 7.732-7.635 4.41L5.485 6.028zm.012.916a.503.503 0 0 0-.262.066L7.688 5.594a.5.5 0 0 0 0 .867l10.94 6.316a.5.5 0 0 0 .5 0l5.18-2.992a.5.5 0 0 0 0-.867L13.37 2.6a.5.5 0 0 0-.238-.066zm-.012 1.078l9.94 5.738-.727.42-8.963-5.173a.5.5 0 0 0-.521.013L9.666 6.447l-.728-.42zm-.5 2.283v2.256l-.726-.42V6.316zm1 0l.729.42V9.15l-.729-.42zm-2.726.996v.264l-.229-.133zm-5.908.002l13.392 7.733v3.5l-.726-.42v-2.371a.5.5 0 0 0-.25-.434L6.46 8.586a.5.5 0 0 0-.75.433v10.64a.5.5 0 0 0 .75.43l5.182-2.991a.5.5 0 0 0 .25-.432v-3.787l.726.42v4.076l-7.634 4.408zm10.363 0l5.984 3.454-2.455 1.418-3.53-2.038zM6.71 9.887l.727.42v8.064l-.727.42zm20.303.332v14.888l-13.395-7.732v-3.498l.729.42v2.369a.5.5 0 0 0 .25.432l10.937 6.316a.5.5 0 0 0 .75-.432V12.344a.5.5 0 0 0-.75-.434l-5.181 2.992a.5.5 0 0 0-.25.434v3.787l-.727-.42v-4.076zm-18.576.664l2.455 1.418v4.076l-2.455 1.418zm16.847 2.328v8.904l-.726-.42v-8.064zm-1.726.996v6.912l-2.455-1.418v-4.076zm-8.211.666l1.303.752v1.504l-1.303-.752zm-2.229 3.367l13.395 7.735-7.637 4.408L5.485 22.65zm-.037.918a.502.502 0 0 0-.213.067l-5.181 2.992a.5.5 0 0 0 0 .865l10.94 6.316a.5.5 0 0 0 .5 0l5.18-2.992a.5.5 0 0 0 0-.865L13.37 19.225a.5.5 0 0 0-.287-.067zm.037 1.076l3.532 2.04v2.835l-5.987-3.459zm-3.455 1.994l8.713 5.032v.84l-9.44-5.452zm7.987.623l.726.42v2.834l-.726-.42zm1.726.997l.727.42v1.417l-.727.42zm1.727.998l.226.13-.226.131zm1.228.709l.727.42-3.682 2.125v-.84z" style="line-height:normal;font-variant-ligatures:normal;font-variant-position:normal;font-variant-caps:normal;font-variant-numeric:normal;font-variant-alternates:normal;font-feature-settings:normal;text-indent:0;text-align:start;text-decoration-line:none;text-decoration-style:solid;text-decoration-color:#000;text-transform:none;text-orientation:mixed;shape-padding:0;isolation:auto;mix-blend-mode:normal"/></svg></svg> <defs><filter id="colors8444753038"><feColorMatrix class="icon-fecolormatrix" values="0 0 0 0 0.0859375  0 0 0 0 0.515625  0 0 0 0 0.671875  0 0 0 1 0" type="matrix"/></filter> <filter id="colorsf629600619"><feColorMatrix class="icon-fecolormatrix" values="0 0 0 0 0.99609375  0 0 0 0 0.99609375  0 0 0 0 0.99609375  0 0 0 1 0" type="matrix"/></filter> <filter id="colorsb774984191"><feColorMatrix class="icon-fecolormatrix" values="0 0 0 0 0  0 0 0 0 0  0 0 0 0 0  0 0 0 1 0" type="matrix"/></filter></defs></g></g></g></g> <g mask="url(#8ac18bfb-616e-4bb0-b73a-8c95feae7c21)" transform="translate(58,0)" data-gra="graph-name"><g><rect fill-opacity="1" height="69.18453979492188" width="166.99000549316406" y="0" x="0" class="i-icon-bg" stroke-width="2" data-gra="graph-name-bg"/>   </g> <g transform="translate(5,7.204851150512695)"><g transform="translate(0,0)" class="tp-name" fill-rule="" data-gra="path-name"><g transform="scale(1)"><g><path transform="translate(-2.950000047683716, 41.75)" d="M37.1-27.42Q37.1-23.47 35.27-20.26 33.44-17.04 29.87-15.16 26.3-13.27 21.23-13.27L21.23-13.27 16.04-13.27 16.04 0 2.95 0 2.95-41.75 21.23-41.75Q28.9-41.75 33-37.86 37.1-33.97 37.1-27.42L37.1-27.42ZM19.76-23.59Q23.83-23.59 23.83-27.42L23.83-27.42Q23.83-31.26 19.76-31.26L19.76-31.26 16.04-31.26 16.04-23.59 19.76-23.59ZM69.18-21.41Q72.95-20.52 75.05-17.78 77.14-15.04 77.14-11.44L77.14-11.44Q77.14-5.96 73.51-2.98 69.89 0 63.1 0L63.1 0 41.22 0 41.22-41.75 62.51-41.75Q68.88-41.75 72.54-38.98 76.2-36.21 76.2-30.9L76.2-30.9Q76.2-27.25 74.28-24.74 72.36-22.23 69.18-21.41L69.18-21.41ZM54.32-31.37L54.32-25.48 59.39-25.48Q61.16-25.48 62.01-26.19 62.87-26.89 62.87-28.37L62.87-28.37Q62.87-29.9 62.01-30.64 61.16-31.37 59.39-31.37L59.39-31.37 54.32-31.37ZM60.27-10.5Q62.04-10.5 62.9-11.18 63.75-11.85 63.75-13.39L63.75-13.39Q63.75-16.4 60.27-16.4L60.27-16.4 54.32-16.4 54.32-10.5 60.27-10.5ZM110.4 0L108.34-6.31 94.42-6.31 92.36 0 78.61 0 93.89-41.75 108.99-41.75 124.2 0 110.4 0ZM97.6-16.16L105.15-16.16 101.38-27.78 97.6-16.16ZM124.79-41.75L159.94-41.75 159.94-31.37 148.85-31.37 148.85 0 135.76 0 135.76-31.37 124.79-31.37 124.79-41.75Z"/></g>       </g></g> <g transform="translate(1.1049957275390625,47.75)" fill="" class="tp-slogan" fill-rule="" data-gra="path-slogan">  <g transform="scale(1, 1)"><g transform="scale(1)"><path transform="translate(-0.9302926545642484, 6.904838813876866)" d="M0.93-6.78L0.93 0L1.79 0L1.79-2.69L3.01-2.69C3.38-2.69 3.72-2.73 4.03-2.82C4.33-2.90 4.60-3.03 4.82-3.20C5.04-3.38 5.21-3.59 5.33-3.86C5.45-4.12 5.51-4.43 5.51-4.79C5.51-5.16 5.45-5.47 5.33-5.73C5.21-5.98 5.04-6.19 4.82-6.34C4.60-6.50 4.34-6.61 4.03-6.68C3.72-6.75 3.38-6.78 3.01-6.78ZM2.90-3.39L1.79-3.39L1.79-6.09L2.90-6.09C3.49-6.09 3.93-5.99 4.22-5.80C4.51-5.61 4.65-5.28 4.65-4.79C4.65-4.30 4.51-3.95 4.22-3.73C3.94-3.50 3.50-3.39 2.90-3.39ZM6.75-6.78L6.75 0L7.61 0L7.61-3.19L10.76-3.19L10.76 0L11.63 0L11.63-6.78L10.76-6.78L10.76-3.94L7.61-3.94L7.61-6.78ZM14.45-2.63L14.45 0L15.32 0L15.32-2.63L17.36-6.78L16.46-6.78L15.59-4.87C15.49-4.62 15.38-4.38 15.26-4.13C15.14-3.89 15.02-3.65 14.91-3.39L14.87-3.39C14.75-3.65 14.64-3.89 14.54-4.13C14.43-4.38 14.33-4.62 14.21-4.87L13.34-6.78L12.42-6.78ZM18.00-1.48L17.48-0.88C17.78-0.57 18.13-0.32 18.54-0.14C18.94 0.03 19.38 0.12 19.86 0.12C20.22 0.12 20.54 0.07 20.82-0.03C21.10-0.13 21.34-0.26 21.54-0.44C21.74-0.62 21.90-0.82 22.00-1.05C22.11-1.29 22.16-1.54 22.16-1.81C22.16-2.06 22.13-2.28 22.06-2.47C21.98-2.65 21.89-2.82 21.76-2.96C21.64-3.10 21.49-3.23 21.32-3.33C21.14-3.44 20.96-3.54 20.77-3.62L19.81-4.03C19.67-4.09 19.54-4.15 19.40-4.21C19.27-4.28 19.15-4.35 19.04-4.44C18.93-4.53 18.84-4.63 18.78-4.74C18.71-4.85 18.68-4.99 18.68-5.16C18.68-5.47 18.80-5.71 19.03-5.89C19.26-6.06 19.56-6.15 19.94-6.15C20.26-6.15 20.54-6.09 20.80-5.98C21.05-5.87 21.28-5.71 21.48-5.51L21.95-6.07C21.71-6.32 21.41-6.52 21.07-6.67C20.72-6.83 20.35-6.90 19.94-6.90C19.63-6.90 19.35-6.86 19.09-6.77C18.83-6.68 18.61-6.56 18.42-6.39C18.23-6.23 18.08-6.04 17.97-5.82C17.87-5.60 17.81-5.36 17.81-5.11C17.81-4.86 17.85-4.64 17.94-4.45C18.02-4.26 18.13-4.10 18.26-3.96C18.39-3.82 18.54-3.70 18.70-3.61C18.87-3.51 19.03-3.43 19.19-3.36L20.16-2.94C20.32-2.86 20.47-2.79 20.60-2.72C20.74-2.65 20.86-2.57 20.96-2.49C21.06-2.40 21.14-2.30 21.20-2.18C21.26-2.06 21.29-1.91 21.29-1.74C21.29-1.41 21.16-1.14 20.91-0.94C20.67-0.73 20.32-0.63 19.87-0.63C19.52-0.63 19.18-0.71 18.85-0.86C18.52-1.02 18.24-1.22 18.00-1.48ZM23.36-6.78L23.36 0L24.22 0L24.22-6.78ZM25.56-3.39C25.56-2.84 25.63-2.34 25.78-1.91C25.93-1.47 26.13-1.10 26.40-0.80C26.66-0.50 26.98-0.27 27.34-0.11C27.70 0.04 28.10 0.12 28.52 0.12C28.96 0.12 29.34 0.04 29.68-0.13C30.02-0.31 30.32-0.55 30.59-0.86L30.11-1.39C29.88-1.14 29.65-0.96 29.41-0.83C29.16-0.70 28.88-0.63 28.54-0.63C28.22-0.63 27.93-0.70 27.67-0.83C27.41-0.96 27.19-1.14 27.01-1.39C26.84-1.63 26.70-1.92 26.60-2.26C26.50-2.60 26.45-2.98 26.45-3.41C26.45-3.83 26.50-4.21 26.60-4.55C26.70-4.89 26.85-5.17 27.04-5.41C27.22-5.65 27.45-5.83 27.71-5.96C27.97-6.09 28.26-6.15 28.59-6.15C28.88-6.15 29.13-6.09 29.35-5.98C29.56-5.87 29.76-5.71 29.94-5.52L30.43-6.07C30.23-6.29 29.97-6.48 29.66-6.65C29.35-6.82 28.99-6.90 28.58-6.90C28.14-6.90 27.74-6.82 27.37-6.66C27.00-6.50 26.68-6.27 26.42-5.96C26.15-5.66 25.94-5.29 25.78-4.86C25.63-4.42 25.56-3.93 25.56-3.39ZM31.49-1.48L30.97-0.88C31.27-0.57 31.62-0.32 32.03-0.14C32.44 0.03 32.88 0.12 33.35 0.12C33.71 0.12 34.03 0.07 34.31-0.03C34.60-0.13 34.84-0.26 35.04-0.44C35.24-0.62 35.39-0.82 35.50-1.05C35.60-1.29 35.66-1.54 35.66-1.81C35.66-2.06 35.62-2.28 35.55-2.47C35.48-2.65 35.38-2.82 35.25-2.96C35.13-3.10 34.98-3.23 34.81-3.33C34.64-3.44 34.45-3.54 34.26-3.62L33.30-4.03C33.16-4.09 33.03-4.15 32.90-4.21C32.77-4.28 32.65-4.35 32.54-4.44C32.43-4.53 32.34-4.63 32.27-4.74C32.21-4.85 32.17-4.99 32.17-5.16C32.17-5.47 32.29-5.71 32.52-5.89C32.75-6.06 33.06-6.15 33.43-6.15C33.75-6.15 34.04-6.09 34.29-5.98C34.54-5.87 34.77-5.71 34.97-5.51L35.44-6.07C35.20-6.32 34.91-6.52 34.56-6.67C34.22-6.83 33.84-6.90 33.43-6.90C33.12-6.90 32.84-6.86 32.58-6.77C32.32-6.68 32.10-6.56 31.91-6.39C31.72-6.23 31.57-6.04 31.47-5.82C31.36-5.60 31.31-5.36 31.31-5.11C31.31-4.86 31.35-4.64 31.43-4.45C31.51-4.26 31.62-4.10 31.75-3.96C31.88-3.82 32.03-3.70 32.19-3.61C32.36-3.51 32.52-3.43 32.68-3.36L33.65-2.94C33.81-2.86 33.96-2.79 34.10-2.72C34.23-2.65 34.35-2.57 34.45-2.49C34.55-2.40 34.63-2.30 34.69-2.18C34.75-2.06 34.78-1.91 34.78-1.74C34.78-1.41 34.65-1.14 34.41-0.94C34.16-0.73 33.81-0.63 33.36-0.63C33.01-0.63 32.67-0.71 32.34-0.86C32.02-1.02 31.73-1.22 31.49-1.48ZM38.81-6.78L38.81 0L40.97 0C41.35 0 41.70-0.04 42.02-0.12C42.33-0.21 42.61-0.33 42.83-0.50C43.06-0.66 43.24-0.87 43.36-1.12C43.48-1.36 43.55-1.65 43.55-1.98C43.55-2.45 43.41-2.82 43.13-3.09C42.86-3.36 42.47-3.53 41.97-3.61L41.97-3.65C42.37-3.75 42.67-3.94 42.86-4.21C43.06-4.48 43.15-4.79 43.15-5.13C43.15-5.42 43.10-5.68 42.98-5.89C42.87-6.10 42.71-6.27 42.51-6.40C42.30-6.53 42.06-6.63 41.77-6.69C41.49-6.75 41.17-6.78 40.83-6.78ZM40.67-3.89L39.67-3.89L39.67-6.10L40.71-6.10C41.24-6.10 41.64-6.02 41.91-5.86C42.17-5.69 42.31-5.43 42.31-5.05C42.31-4.68 42.18-4.39 41.93-4.19C41.68-3.99 41.26-3.89 40.67-3.89ZM40.85-0.68L39.67-0.68L39.67-3.25L40.85-3.25C41.45-3.25 41.91-3.15 42.22-2.95C42.54-2.75 42.70-2.45 42.70-2.03C42.70-1.56 42.54-1.22 42.21-1.01C41.89-0.79 41.43-0.68 40.85-0.68ZM47.64-2.76L45.60-2.76L45.92-3.79C46.05-4.17 46.17-4.55 46.28-4.93C46.39-5.30 46.49-5.69 46.60-6.08L46.64-6.08C46.75-5.69 46.86-5.30 46.97-4.93C47.08-4.55 47.20-4.17 47.32-3.79ZM47.86-2.07L48.50 0L49.42 0L47.12-6.78L46.15-6.78L43.86 0L44.74 0L45.39-2.07ZM50.27-1.48L49.75-0.88C50.05-0.57 50.40-0.32 50.80-0.14C51.21 0.03 51.65 0.12 52.13 0.12C52.49 0.12 52.81 0.07 53.09-0.03C53.37-0.13 53.61-0.26 53.81-0.44C54.01-0.62 54.17-0.82 54.27-1.05C54.38-1.29 54.43-1.54 54.43-1.81C54.43-2.06 54.40-2.28 54.32-2.47C54.25-2.65 54.15-2.82 54.03-2.96C53.91-3.10 53.76-3.23 53.58-3.33C53.41-3.44 53.23-3.54 53.04-3.62L52.08-4.03C51.94-4.09 51.80-4.15 51.67-4.21C51.54-4.28 51.42-4.35 51.31-4.44C51.20-4.53 51.11-4.63 51.05-4.74C50.98-4.85 50.95-4.99 50.95-5.16C50.95-5.47 51.06-5.71 51.30-5.89C51.53-6.06 51.83-6.15 52.21-6.15C52.53-6.15 52.81-6.09 53.06-5.98C53.31-5.87 53.54-5.71 53.75-5.51L54.22-6.07C53.97-6.32 53.68-6.52 53.34-6.67C52.99-6.83 52.62-6.90 52.21-6.90C51.90-6.90 51.62-6.86 51.36-6.77C51.10-6.68 50.88-6.56 50.69-6.39C50.50-6.23 50.35-6.04 50.24-5.82C50.13-5.60 50.08-5.36 50.08-5.11C50.08-4.86 50.12-4.64 50.20-4.45C50.29-4.26 50.39-4.10 50.53-3.96C50.66-3.82 50.80-3.70 50.97-3.61C51.14-3.51 51.30-3.43 51.46-3.36L52.43-2.94C52.59-2.86 52.73-2.79 52.87-2.72C53.01-2.65 53.13-2.57 53.23-2.49C53.33-2.40 53.41-2.30 53.47-2.18C53.52-2.06 53.55-1.91 53.55-1.74C53.55-1.41 53.43-1.14 53.18-0.94C52.93-0.73 52.59-0.63 52.14-0.63C51.79-0.63 51.45-0.71 51.12-0.86C50.79-1.02 50.51-1.22 50.27-1.48ZM55.63-6.78L55.63 0L59.64 0L59.64-0.73L56.49-0.73L56.49-3.19L59.06-3.19L59.06-3.93L56.49-3.93L56.49-6.06L59.54-6.06L59.54-6.78ZM60.95-6.78L60.95 0L62.68 0C63.19 0 63.64-0.08 64.04-0.23C64.43-0.39 64.76-0.61 65.03-0.90C65.30-1.20 65.50-1.56 65.64-1.98C65.78-2.40 65.85-2.88 65.85-3.42C65.85-4.50 65.57-5.33 65.03-5.91C64.49-6.49 63.69-6.78 62.64-6.78ZM62.58-0.70L61.80-0.70L61.80-6.08L62.58-6.08C63.37-6.08 63.97-5.85 64.36-5.40C64.76-4.94 64.96-4.28 64.96-3.42C64.96-2.56 64.76-1.89 64.36-1.42C63.97-0.94 63.37-0.70 62.58-0.70ZM72.01-2.76L69.97-2.76L70.29-3.79C70.42-4.17 70.53-4.55 70.64-4.93C70.75-5.30 70.86-5.69 70.96-6.08L71.01-6.08C71.12-5.69 71.23-5.30 71.34-4.93C71.45-4.55 71.56-4.17 71.69-3.79ZM72.23-2.07L72.87 0L73.79 0L71.49-6.78L70.52-6.78L68.23 0L69.10 0L69.76-2.07ZM74.61-6.78L74.61 0L75.43 0L75.43-3.55C75.43-3.90 75.42-4.26 75.40-4.62C75.37-4.97 75.35-5.32 75.32-5.66L75.36-5.66L76.09-4.27L78.55 0L79.44 0L79.44-6.78L78.63-6.78L78.63-3.28C78.63-2.92 78.64-2.55 78.66-2.19C78.69-1.82 78.71-1.46 78.73-1.12L78.69-1.12L77.95-2.52L75.50-6.78ZM81.17-6.78L81.17 0L82.03 0L82.03-6.78ZM83.75-6.78L83.75 0L84.55 0L84.55-3.73C84.55-4.03 84.54-4.37 84.51-4.73C84.48-5.10 84.46-5.43 84.44-5.74L84.48-5.74L85.02-4.23L86.33-0.68L86.81-0.68L88.12-4.23L88.66-5.74L88.71-5.74C88.68-5.43 88.65-5.10 88.63-4.73C88.60-4.37 88.59-4.03 88.59-3.73L88.59 0L89.41 0L89.41-6.78L88.40-6.78L87.09-3.14L86.62-1.76L86.58-1.76L86.08-3.14L84.77-6.78ZM94.02-2.76L91.98-2.76L92.30-3.79C92.43-4.17 92.54-4.55 92.66-4.93C92.77-5.30 92.87-5.69 92.98-6.08L93.02-6.08C93.13-5.69 93.24-5.30 93.35-4.93C93.46-4.55 93.58-4.17 93.70-3.79ZM94.24-2.07L94.88 0L95.80 0L93.50-6.78L92.53-6.78L90.24 0L91.12 0L91.77-2.07ZM97.62-6.06L97.62 0L98.49 0L98.49-6.06L100.53-6.06L100.53-6.78L95.57-6.78L95.57-6.06ZM101.62-6.78L101.62 0L102.48 0L102.48-6.78ZM106.71 0.12C107.13 0.12 107.52 0.04 107.88-0.12C108.23-0.29 108.54-0.53 108.80-0.83C109.06-1.14 109.26-1.51 109.40-1.95C109.54-2.39 109.61-2.88 109.61-3.42C109.61-3.96 109.54-4.44 109.40-4.87C109.26-5.30 109.06-5.67 108.80-5.97C108.54-6.27 108.23-6.50 107.88-6.66C107.52-6.82 107.13-6.90 106.71-6.90C106.28-6.90 105.89-6.83 105.53-6.67C105.18-6.51 104.87-6.28 104.62-5.98C104.36-5.68 104.16-5.31 104.02-4.88C103.88-4.45 103.81-3.97 103.81-3.42C103.81-2.88 103.88-2.39 104.02-1.95C104.16-1.51 104.36-1.14 104.62-0.83C104.87-0.53 105.18-0.29 105.53-0.12C105.89 0.04 106.28 0.12 106.71 0.12ZM106.71-0.63C106.40-0.63 106.13-0.70 105.88-0.83C105.64-0.96 105.43-1.15 105.25-1.39C105.08-1.63 104.94-1.93 104.85-2.27C104.75-2.61 104.70-2.99 104.70-3.42C104.70-3.84 104.75-4.22 104.85-4.56C104.94-4.90 105.08-5.18 105.25-5.42C105.43-5.65 105.64-5.83 105.88-5.96C106.13-6.09 106.40-6.15 106.71-6.15C107.01-6.15 107.28-6.09 107.53-5.96C107.77-5.83 107.98-5.65 108.16-5.42C108.33-5.18 108.47-4.90 108.57-4.56C108.66-4.22 108.71-3.84 108.71-3.42C108.71-2.99 108.66-2.61 108.57-2.27C108.47-1.93 108.33-1.63 108.16-1.39C107.98-1.15 107.77-0.96 107.53-0.83C107.28-0.70 107.01-0.63 106.71-0.63ZM110.93-6.78L110.93 0L111.75 0L111.75-3.55C111.75-3.90 111.74-4.26 111.71-4.62C111.69-4.97 111.66-5.32 111.64-5.66L111.68-5.66L112.41-4.27L114.87 0L115.76 0L115.76-6.78L114.95-6.78L114.95-3.28C114.95-2.92 114.96-2.55 114.98-2.19C115.01-1.82 115.03-1.46 115.05-1.12L115.01-1.12L114.27-2.52L111.82-6.78ZM120.85-6.06L120.85 0L121.72 0L121.72-6.06L123.76-6.06L123.76-6.78L118.80-6.78L118.80-6.06ZM127.10 0.12C127.53 0.12 127.92 0.04 128.28-0.12C128.63-0.29 128.94-0.53 129.20-0.83C129.46-1.14 129.66-1.51 129.80-1.95C129.94-2.39 130.01-2.88 130.01-3.42C130.01-3.96 129.94-4.44 129.80-4.87C129.66-5.30 129.46-5.67 129.20-5.97C128.94-6.27 128.63-6.50 128.28-6.66C127.92-6.82 127.53-6.90 127.10-6.90C126.68-6.90 126.29-6.83 125.93-6.67C125.58-6.51 125.27-6.28 125.02-5.98C124.76-5.68 124.56-5.31 124.42-4.88C124.28-4.45 124.21-3.97 124.21-3.42C124.21-2.88 124.28-2.39 124.42-1.95C124.56-1.51 124.76-1.14 125.02-0.83C125.27-0.53 125.58-0.29 125.93-0.12C126.29 0.04 126.68 0.12 127.10 0.12ZM127.10-0.63C126.80-0.63 126.53-0.70 126.28-0.83C126.04-0.96 125.83-1.15 125.65-1.39C125.48-1.63 125.34-1.93 125.24-2.27C125.15-2.61 125.10-2.99 125.10-3.42C125.10-3.84 125.15-4.22 125.24-4.56C125.34-4.90 125.48-5.18 125.65-5.42C125.83-5.65 126.04-5.83 126.28-5.96C126.53-6.09 126.80-6.15 127.10-6.15C127.41-6.15 127.68-6.09 127.93-5.96C128.17-5.83 128.38-5.65 128.56-5.42C128.73-5.18 128.87-4.90 128.96-4.56C129.06-4.22 129.11-3.84 129.11-3.42C129.11-2.99 129.06-2.61 128.96-2.27C128.87-1.93 128.73-1.63 128.56-1.39C128.38-1.15 128.17-0.96 127.93-0.83C127.68-0.70 127.41-0.63 127.10-0.63ZM133.83 0.12C134.26 0.12 134.65 0.04 135.01-0.12C135.36-0.29 135.67-0.53 135.93-0.83C136.19-1.14 136.39-1.51 136.53-1.95C136.67-2.39 136.74-2.88 136.74-3.42C136.74-3.96 136.67-4.44 136.53-4.87C136.39-5.30 136.19-5.67 135.93-5.97C135.67-6.27 135.36-6.50 135.01-6.66C134.65-6.82 134.26-6.90 133.83-6.90C133.41-6.90 133.02-6.83 132.66-6.67C132.31-6.51 132.00-6.28 131.75-5.98C131.49-5.68 131.29-5.31 131.15-4.88C131.01-4.45 130.94-3.97 130.94-3.42C130.94-2.88 131.01-2.39 131.15-1.95C131.29-1.51 131.49-1.14 131.75-0.83C132.00-0.53 132.31-0.29 132.66-0.12C133.02 0.04 133.41 0.12 133.83 0.12ZM133.83-0.63C133.53-0.63 133.26-0.70 133.01-0.83C132.77-0.96 132.56-1.15 132.38-1.39C132.21-1.63 132.07-1.93 131.97-2.27C131.88-2.61 131.83-2.99 131.83-3.42C131.83-3.84 131.88-4.22 131.97-4.56C132.07-4.90 132.21-5.18 132.38-5.42C132.56-5.65 132.77-5.83 133.01-5.96C133.26-6.09 133.53-6.15 133.83-6.15C134.14-6.15 134.41-6.09 134.66-5.96C134.90-5.83 135.11-5.65 135.29-5.42C135.46-5.18 135.60-4.90 135.69-4.56C135.79-4.22 135.84-3.84 135.84-3.42C135.84-2.99 135.79-2.61 135.69-2.27C135.60-1.93 135.46-1.63 135.29-1.39C135.11-1.15 134.90-0.96 134.66-0.83C134.41-0.70 134.14-0.63 133.83-0.63ZM138.06-6.78L138.06 0L141.89 0L141.89-0.73L138.92-0.73L138.92-6.78ZM142.95-6.78L142.95 0L143.81 0L143.81-2.15L144.98-3.52L147.01 0L147.97 0L145.52-4.20L147.64-6.78L146.66-6.78L143.84-3.38L143.81-3.38L143.81-6.78ZM148.80-6.78L148.80 0L149.66 0L149.66-6.78ZM152.80-6.06L152.80 0L153.66 0L153.66-6.06L155.71-6.06L155.71-6.78L150.75-6.78L150.75-6.06Z"/></g></g></g></g></g></g></g></g><defs/><mask id="6da613aa-8e8c-45ad-9823-b16a8605316c"><g fill="white"><rect fill-opacity="1" height="69.18453979492188" width="56" y="0" x="0" class="i-icon-bg" stroke-width="2" data-gra="graph-name-bg"/>   </g> <g fill="black" transform="translate(5,5)"><g class="iconsvg-imagesvg"><g> <svg filter="url(#colorsb774984191)" style="overflow: visible;" class="image-svg-svg primary" height="59.18453996886379" width="46" y="0" x="0"><svg viewBox="3.9850001335144043 0.5406791567802429 24.030607223510742 30.918306350708008" xmlns="http://www.w3.org/2000/svg"><path overflow="visible" font-family="sans-serif" font-weight="400" color="#000" d="M4.235 5.594a.5.5 0 0 0-.25.433V22.65a.5.5 0 0 0 .25.432l14.392 8.31a.5.5 0 0 0 .5 0l8.637-4.986a.5.5 0 0 0 .25-.432V9.392a.5.5 0 0 0-.25-.474L13.369.608a.505.505 0 0 0-.242-.067.485.485 0 0 0-.218.043zm8.884-3.975l13.393 7.732-7.635 4.41L5.485 6.028zm.012.916a.503.503 0 0 0-.262.066L7.688 5.594a.5.5 0 0 0 0 .867l10.94 6.316a.5.5 0 0 0 .5 0l5.18-2.992a.5.5 0 0 0 0-.867L13.37 2.6a.5.5 0 0 0-.238-.066zm-.012 1.078l9.94 5.738-.727.42-8.963-5.173a.5.5 0 0 0-.521.013L9.666 6.447l-.728-.42zm-.5 2.283v2.256l-.726-.42V6.316zm1 0l.729.42V9.15l-.729-.42zm-2.726.996v.264l-.229-.133zm-5.908.002l13.392 7.733v3.5l-.726-.42v-2.371a.5.5 0 0 0-.25-.434L6.46 8.586a.5.5 0 0 0-.75.433v10.64a.5.5 0 0 0 .75.43l5.182-2.991a.5.5 0 0 0 .25-.432v-3.787l.726.42v4.076l-7.634 4.408zm10.363 0l5.984 3.454-2.455 1.418-3.53-2.038zM6.71 9.887l.727.42v8.064l-.727.42zm20.303.332v14.888l-13.395-7.732v-3.498l.729.42v2.369a.5.5 0 0 0 .25.432l10.937 6.316a.5.5 0 0 0 .75-.432V12.344a.5.5 0 0 0-.75-.434l-5.181 2.992a.5.5 0 0 0-.25.434v3.787l-.727-.42v-4.076zm-18.576.664l2.455 1.418v4.076l-2.455 1.418zm16.847 2.328v8.904l-.726-.42v-8.064zm-1.726.996v6.912l-2.455-1.418v-4.076zm-8.211.666l1.303.752v1.504l-1.303-.752zm-2.229 3.367l13.395 7.735-7.637 4.408L5.485 22.65zm-.037.918a.502.502 0 0 0-.213.067l-5.181 2.992a.5.5 0 0 0 0 .865l10.94 6.316a.5.5 0 0 0 .5 0l5.18-2.992a.5.5 0 0 0 0-.865L13.37 19.225a.5.5 0 0 0-.287-.067zm.037 1.076l3.532 2.04v2.835l-5.987-3.459zm-3.455 1.994l8.713 5.032v.84l-9.44-5.452zm7.987.623l.726.42v2.834l-.726-.42zm1.726.997l.727.42v1.417l-.727.42zm1.727.998l.226.13-.226.131zm1.228.709l.727.42-3.682 2.125v-.84z" style="line-height:normal;font-variant-ligatures:normal;font-variant-position:normal;font-variant-caps:normal;font-variant-numeric:normal;font-variant-alternates:normal;font-feature-settings:normal;text-indent:0;text-align:start;text-decoration-line:none;text-decoration-style:solid;text-decoration-color:#000;text-transform:none;text-orientation:mixed;shape-padding:0;isolation:auto;mix-blend-mode:normal"/></svg></svg> <defs>  </defs></g></g></g></mask><mask id="8ac18bfb-616e-4bb0-b73a-8c95feae7c21"><g fill="white"><rect fill-opacity="1" height="69.18453979492188" width="166.99000549316406" y="0" x="0" class="i-icon-bg" stroke-width="2" data-gra="graph-name-bg"/>   </g> <g fill="black" transform="translate(5,7.204851150512695)"><g transform="translate(0,0)" class="tp-name" fill-rule="" data-gra="path-name"><g transform="scale(1)"><g><path transform="translate(-2.950000047683716, 41.75)" d="M37.1-27.42Q37.1-23.47 35.27-20.26 33.44-17.04 29.87-15.16 26.3-13.27 21.23-13.27L21.23-13.27 16.04-13.27 16.04 0 2.95 0 2.95-41.75 21.23-41.75Q28.9-41.75 33-37.86 37.1-33.97 37.1-27.42L37.1-27.42ZM19.76-23.59Q23.83-23.59 23.83-27.42L23.83-27.42Q23.83-31.26 19.76-31.26L19.76-31.26 16.04-31.26 16.04-23.59 19.76-23.59ZM69.18-21.41Q72.95-20.52 75.05-17.78 77.14-15.04 77.14-11.44L77.14-11.44Q77.14-5.96 73.51-2.98 69.89 0 63.1 0L63.1 0 41.22 0 41.22-41.75 62.51-41.75Q68.88-41.75 72.54-38.98 76.2-36.21 76.2-30.9L76.2-30.9Q76.2-27.25 74.28-24.74 72.36-22.23 69.18-21.41L69.18-21.41ZM54.32-31.37L54.32-25.48 59.39-25.48Q61.16-25.48 62.01-26.19 62.87-26.89 62.87-28.37L62.87-28.37Q62.87-29.9 62.01-30.64 61.16-31.37 59.39-31.37L59.39-31.37 54.32-31.37ZM60.27-10.5Q62.04-10.5 62.9-11.18 63.75-11.85 63.75-13.39L63.75-13.39Q63.75-16.4 60.27-16.4L60.27-16.4 54.32-16.4 54.32-10.5 60.27-10.5ZM110.4 0L108.34-6.31 94.42-6.31 92.36 0 78.61 0 93.89-41.75 108.99-41.75 124.2 0 110.4 0ZM97.6-16.16L105.15-16.16 101.38-27.78 97.6-16.16ZM124.79-41.75L159.94-41.75 159.94-31.37 148.85-31.37 148.85 0 135.76 0 135.76-31.37 124.79-31.37 124.79-41.75Z"/></g>       </g></g> <g transform="translate(1.1049957275390625,47.75)" class="tp-slogan" fill-rule="" data-gra="path-slogan">  <g transform="scale(1, 1)"><g transform="scale(1)"><path transform="translate(-0.9302926545642484, 6.904838813876866)" d="M0.93-6.78L0.93 0L1.79 0L1.79-2.69L3.01-2.69C3.38-2.69 3.72-2.73 4.03-2.82C4.33-2.90 4.60-3.03 4.82-3.20C5.04-3.38 5.21-3.59 5.33-3.86C5.45-4.12 5.51-4.43 5.51-4.79C5.51-5.16 5.45-5.47 5.33-5.73C5.21-5.98 5.04-6.19 4.82-6.34C4.60-6.50 4.34-6.61 4.03-6.68C3.72-6.75 3.38-6.78 3.01-6.78ZM2.90-3.39L1.79-3.39L1.79-6.09L2.90-6.09C3.49-6.09 3.93-5.99 4.22-5.80C4.51-5.61 4.65-5.28 4.65-4.79C4.65-4.30 4.51-3.95 4.22-3.73C3.94-3.50 3.50-3.39 2.90-3.39ZM6.75-6.78L6.75 0L7.61 0L7.61-3.19L10.76-3.19L10.76 0L11.63 0L11.63-6.78L10.76-6.78L10.76-3.94L7.61-3.94L7.61-6.78ZM14.45-2.63L14.45 0L15.32 0L15.32-2.63L17.36-6.78L16.46-6.78L15.59-4.87C15.49-4.62 15.38-4.38 15.26-4.13C15.14-3.89 15.02-3.65 14.91-3.39L14.87-3.39C14.75-3.65 14.64-3.89 14.54-4.13C14.43-4.38 14.33-4.62 14.21-4.87L13.34-6.78L12.42-6.78ZM18.00-1.48L17.48-0.88C17.78-0.57 18.13-0.32 18.54-0.14C18.94 0.03 19.38 0.12 19.86 0.12C20.22 0.12 20.54 0.07 20.82-0.03C21.10-0.13 21.34-0.26 21.54-0.44C21.74-0.62 21.90-0.82 22.00-1.05C22.11-1.29 22.16-1.54 22.16-1.81C22.16-2.06 22.13-2.28 22.06-2.47C21.98-2.65 21.89-2.82 21.76-2.96C21.64-3.10 21.49-3.23 21.32-3.33C21.14-3.44 20.96-3.54 20.77-3.62L19.81-4.03C19.67-4.09 19.54-4.15 19.40-4.21C19.27-4.28 19.15-4.35 19.04-4.44C18.93-4.53 18.84-4.63 18.78-4.74C18.71-4.85 18.68-4.99 18.68-5.16C18.68-5.47 18.80-5.71 19.03-5.89C19.26-6.06 19.56-6.15 19.94-6.15C20.26-6.15 20.54-6.09 20.80-5.98C21.05-5.87 21.28-5.71 21.48-5.51L21.95-6.07C21.71-6.32 21.41-6.52 21.07-6.67C20.72-6.83 20.35-6.90 19.94-6.90C19.63-6.90 19.35-6.86 19.09-6.77C18.83-6.68 18.61-6.56 18.42-6.39C18.23-6.23 18.08-6.04 17.97-5.82C17.87-5.60 17.81-5.36 17.81-5.11C17.81-4.86 17.85-4.64 17.94-4.45C18.02-4.26 18.13-4.10 18.26-3.96C18.39-3.82 18.54-3.70 18.70-3.61C18.87-3.51 19.03-3.43 19.19-3.36L20.16-2.94C20.32-2.86 20.47-2.79 20.60-2.72C20.74-2.65 20.86-2.57 20.96-2.49C21.06-2.40 21.14-2.30 21.20-2.18C21.26-2.06 21.29-1.91 21.29-1.74C21.29-1.41 21.16-1.14 20.91-0.94C20.67-0.73 20.32-0.63 19.87-0.63C19.52-0.63 19.18-0.71 18.85-0.86C18.52-1.02 18.24-1.22 18.00-1.48ZM23.36-6.78L23.36 0L24.22 0L24.22-6.78ZM25.56-3.39C25.56-2.84 25.63-2.34 25.78-1.91C25.93-1.47 26.13-1.10 26.40-0.80C26.66-0.50 26.98-0.27 27.34-0.11C27.70 0.04 28.10 0.12 28.52 0.12C28.96 0.12 29.34 0.04 29.68-0.13C30.02-0.31 30.32-0.55 30.59-0.86L30.11-1.39C29.88-1.14 29.65-0.96 29.41-0.83C29.16-0.70 28.88-0.63 28.54-0.63C28.22-0.63 27.93-0.70 27.67-0.83C27.41-0.96 27.19-1.14 27.01-1.39C26.84-1.63 26.70-1.92 26.60-2.26C26.50-2.60 26.45-2.98 26.45-3.41C26.45-3.83 26.50-4.21 26.60-4.55C26.70-4.89 26.85-5.17 27.04-5.41C27.22-5.65 27.45-5.83 27.71-5.96C27.97-6.09 28.26-6.15 28.59-6.15C28.88-6.15 29.13-6.09 29.35-5.98C29.56-5.87 29.76-5.71 29.94-5.52L30.43-6.07C30.23-6.29 29.97-6.48 29.66-6.65C29.35-6.82 28.99-6.90 28.58-6.90C28.14-6.90 27.74-6.82 27.37-6.66C27.00-6.50 26.68-6.27 26.42-5.96C26.15-5.66 25.94-5.29 25.78-4.86C25.63-4.42 25.56-3.93 25.56-3.39ZM31.49-1.48L30.97-0.88C31.27-0.57 31.62-0.32 32.03-0.14C32.44 0.03 32.88 0.12 33.35 0.12C33.71 0.12 34.03 0.07 34.31-0.03C34.60-0.13 34.84-0.26 35.04-0.44C35.24-0.62 35.39-0.82 35.50-1.05C35.60-1.29 35.66-1.54 35.66-1.81C35.66-2.06 35.62-2.28 35.55-2.47C35.48-2.65 35.38-2.82 35.25-2.96C35.13-3.10 34.98-3.23 34.81-3.33C34.64-3.44 34.45-3.54 34.26-3.62L33.30-4.03C33.16-4.09 33.03-4.15 32.90-4.21C32.77-4.28 32.65-4.35 32.54-4.44C32.43-4.53 32.34-4.63 32.27-4.74C32.21-4.85 32.17-4.99 32.17-5.16C32.17-5.47 32.29-5.71 32.52-5.89C32.75-6.06 33.06-6.15 33.43-6.15C33.75-6.15 34.04-6.09 34.29-5.98C34.54-5.87 34.77-5.71 34.97-5.51L35.44-6.07C35.20-6.32 34.91-6.52 34.56-6.67C34.22-6.83 33.84-6.90 33.43-6.90C33.12-6.90 32.84-6.86 32.58-6.77C32.32-6.68 32.10-6.56 31.91-6.39C31.72-6.23 31.57-6.04 31.47-5.82C31.36-5.60 31.31-5.36 31.31-5.11C31.31-4.86 31.35-4.64 31.43-4.45C31.51-4.26 31.62-4.10 31.75-3.96C31.88-3.82 32.03-3.70 32.19-3.61C32.36-3.51 32.52-3.43 32.68-3.36L33.65-2.94C33.81-2.86 33.96-2.79 34.10-2.72C34.23-2.65 34.35-2.57 34.45-2.49C34.55-2.40 34.63-2.30 34.69-2.18C34.75-2.06 34.78-1.91 34.78-1.74C34.78-1.41 34.65-1.14 34.41-0.94C34.16-0.73 33.81-0.63 33.36-0.63C33.01-0.63 32.67-0.71 32.34-0.86C32.02-1.02 31.73-1.22 31.49-1.48ZM38.81-6.78L38.81 0L40.97 0C41.35 0 41.70-0.04 42.02-0.12C42.33-0.21 42.61-0.33 42.83-0.50C43.06-0.66 43.24-0.87 43.36-1.12C43.48-1.36 43.55-1.65 43.55-1.98C43.55-2.45 43.41-2.82 43.13-3.09C42.86-3.36 42.47-3.53 41.97-3.61L41.97-3.65C42.37-3.75 42.67-3.94 42.86-4.21C43.06-4.48 43.15-4.79 43.15-5.13C43.15-5.42 43.10-5.68 42.98-5.89C42.87-6.10 42.71-6.27 42.51-6.40C42.30-6.53 42.06-6.63 41.77-6.69C41.49-6.75 41.17-6.78 40.83-6.78ZM40.67-3.89L39.67-3.89L39.67-6.10L40.71-6.10C41.24-6.10 41.64-6.02 41.91-5.86C42.17-5.69 42.31-5.43 42.31-5.05C42.31-4.68 42.18-4.39 41.93-4.19C41.68-3.99 41.26-3.89 40.67-3.89ZM40.85-0.68L39.67-0.68L39.67-3.25L40.85-3.25C41.45-3.25 41.91-3.15 42.22-2.95C42.54-2.75 42.70-2.45 42.70-2.03C42.70-1.56 42.54-1.22 42.21-1.01C41.89-0.79 41.43-0.68 40.85-0.68ZM47.64-2.76L45.60-2.76L45.92-3.79C46.05-4.17 46.17-4.55 46.28-4.93C46.39-5.30 46.49-5.69 46.60-6.08L46.64-6.08C46.75-5.69 46.86-5.30 46.97-4.93C47.08-4.55 47.20-4.17 47.32-3.79ZM47.86-2.07L48.50 0L49.42 0L47.12-6.78L46.15-6.78L43.86 0L44.74 0L45.39-2.07ZM50.27-1.48L49.75-0.88C50.05-0.57 50.40-0.32 50.80-0.14C51.21 0.03 51.65 0.12 52.13 0.12C52.49 0.12 52.81 0.07 53.09-0.03C53.37-0.13 53.61-0.26 53.81-0.44C54.01-0.62 54.17-0.82 54.27-1.05C54.38-1.29 54.43-1.54 54.43-1.81C54.43-2.06 54.40-2.28 54.32-2.47C54.25-2.65 54.15-2.82 54.03-2.96C53.91-3.10 53.76-3.23 53.58-3.33C53.41-3.44 53.23-3.54 53.04-3.62L52.08-4.03C51.94-4.09 51.80-4.15 51.67-4.21C51.54-4.28 51.42-4.35 51.31-4.44C51.20-4.53 51.11-4.63 51.05-4.74C50.98-4.85 50.95-4.99 50.95-5.16C50.95-5.47 51.06-5.71 51.30-5.89C51.53-6.06 51.83-6.15 52.21-6.15C52.53-6.15 52.81-6.09 53.06-5.98C53.31-5.87 53.54-5.71 53.75-5.51L54.22-6.07C53.97-6.32 53.68-6.52 53.34-6.67C52.99-6.83 52.62-6.90 52.21-6.90C51.90-6.90 51.62-6.86 51.36-6.77C51.10-6.68 50.88-6.56 50.69-6.39C50.50-6.23 50.35-6.04 50.24-5.82C50.13-5.60 50.08-5.36 50.08-5.11C50.08-4.86 50.12-4.64 50.20-4.45C50.29-4.26 50.39-4.10 50.53-3.96C50.66-3.82 50.80-3.70 50.97-3.61C51.14-3.51 51.30-3.43 51.46-3.36L52.43-2.94C52.59-2.86 52.73-2.79 52.87-2.72C53.01-2.65 53.13-2.57 53.23-2.49C53.33-2.40 53.41-2.30 53.47-2.18C53.52-2.06 53.55-1.91 53.55-1.74C53.55-1.41 53.43-1.14 53.18-0.94C52.93-0.73 52.59-0.63 52.14-0.63C51.79-0.63 51.45-0.71 51.12-0.86C50.79-1.02 50.51-1.22 50.27-1.48ZM55.63-6.78L55.63 0L59.64 0L59.64-0.73L56.49-0.73L56.49-3.19L59.06-3.19L59.06-3.93L56.49-3.93L56.49-6.06L59.54-6.06L59.54-6.78ZM60.95-6.78L60.95 0L62.68 0C63.19 0 63.64-0.08 64.04-0.23C64.43-0.39 64.76-0.61 65.03-0.90C65.30-1.20 65.50-1.56 65.64-1.98C65.78-2.40 65.85-2.88 65.85-3.42C65.85-4.50 65.57-5.33 65.03-5.91C64.49-6.49 63.69-6.78 62.64-6.78ZM62.58-0.70L61.80-0.70L61.80-6.08L62.58-6.08C63.37-6.08 63.97-5.85 64.36-5.40C64.76-4.94 64.96-4.28 64.96-3.42C64.96-2.56 64.76-1.89 64.36-1.42C63.97-0.94 63.37-0.70 62.58-0.70ZM72.01-2.76L69.97-2.76L70.29-3.79C70.42-4.17 70.53-4.55 70.64-4.93C70.75-5.30 70.86-5.69 70.96-6.08L71.01-6.08C71.12-5.69 71.23-5.30 71.34-4.93C71.45-4.55 71.56-4.17 71.69-3.79ZM72.23-2.07L72.87 0L73.79 0L71.49-6.78L70.52-6.78L68.23 0L69.10 0L69.76-2.07ZM74.61-6.78L74.61 0L75.43 0L75.43-3.55C75.43-3.90 75.42-4.26 75.40-4.62C75.37-4.97 75.35-5.32 75.32-5.66L75.36-5.66L76.09-4.27L78.55 0L79.44 0L79.44-6.78L78.63-6.78L78.63-3.28C78.63-2.92 78.64-2.55 78.66-2.19C78.69-1.82 78.71-1.46 78.73-1.12L78.69-1.12L77.95-2.52L75.50-6.78ZM81.17-6.78L81.17 0L82.03 0L82.03-6.78ZM83.75-6.78L83.75 0L84.55 0L84.55-3.73C84.55-4.03 84.54-4.37 84.51-4.73C84.48-5.10 84.46-5.43 84.44-5.74L84.48-5.74L85.02-4.23L86.33-0.68L86.81-0.68L88.12-4.23L88.66-5.74L88.71-5.74C88.68-5.43 88.65-5.10 88.63-4.73C88.60-4.37 88.59-4.03 88.59-3.73L88.59 0L89.41 0L89.41-6.78L88.40-6.78L87.09-3.14L86.62-1.76L86.58-1.76L86.08-3.14L84.77-6.78ZM94.02-2.76L91.98-2.76L92.30-3.79C92.43-4.17 92.54-4.55 92.66-4.93C92.77-5.30 92.87-5.69 92.98-6.08L93.02-6.08C93.13-5.69 93.24-5.30 93.35-4.93C93.46-4.55 93.58-4.17 93.70-3.79ZM94.24-2.07L94.88 0L95.80 0L93.50-6.78L92.53-6.78L90.24 0L91.12 0L91.77-2.07ZM97.62-6.06L97.62 0L98.49 0L98.49-6.06L100.53-6.06L100.53-6.78L95.57-6.78L95.57-6.06ZM101.62-6.78L101.62 0L102.48 0L102.48-6.78ZM106.71 0.12C107.13 0.12 107.52 0.04 107.88-0.12C108.23-0.29 108.54-0.53 108.80-0.83C109.06-1.14 109.26-1.51 109.40-1.95C109.54-2.39 109.61-2.88 109.61-3.42C109.61-3.96 109.54-4.44 109.40-4.87C109.26-5.30 109.06-5.67 108.80-5.97C108.54-6.27 108.23-6.50 107.88-6.66C107.52-6.82 107.13-6.90 106.71-6.90C106.28-6.90 105.89-6.83 105.53-6.67C105.18-6.51 104.87-6.28 104.62-5.98C104.36-5.68 104.16-5.31 104.02-4.88C103.88-4.45 103.81-3.97 103.81-3.42C103.81-2.88 103.88-2.39 104.02-1.95C104.16-1.51 104.36-1.14 104.62-0.83C104.87-0.53 105.18-0.29 105.53-0.12C105.89 0.04 106.28 0.12 106.71 0.12ZM106.71-0.63C106.40-0.63 106.13-0.70 105.88-0.83C105.64-0.96 105.43-1.15 105.25-1.39C105.08-1.63 104.94-1.93 104.85-2.27C104.75-2.61 104.70-2.99 104.70-3.42C104.70-3.84 104.75-4.22 104.85-4.56C104.94-4.90 105.08-5.18 105.25-5.42C105.43-5.65 105.64-5.83 105.88-5.96C106.13-6.09 106.40-6.15 106.71-6.15C107.01-6.15 107.28-6.09 107.53-5.96C107.77-5.83 107.98-5.65 108.16-5.42C108.33-5.18 108.47-4.90 108.57-4.56C108.66-4.22 108.71-3.84 108.71-3.42C108.71-2.99 108.66-2.61 108.57-2.27C108.47-1.93 108.33-1.63 108.16-1.39C107.98-1.15 107.77-0.96 107.53-0.83C107.28-0.70 107.01-0.63 106.71-0.63ZM110.93-6.78L110.93 0L111.75 0L111.75-3.55C111.75-3.90 111.74-4.26 111.71-4.62C111.69-4.97 111.66-5.32 111.64-5.66L111.68-5.66L112.41-4.27L114.87 0L115.76 0L115.76-6.78L114.95-6.78L114.95-3.28C114.95-2.92 114.96-2.55 114.98-2.19C115.01-1.82 115.03-1.46 115.05-1.12L115.01-1.12L114.27-2.52L111.82-6.78ZM120.85-6.06L120.85 0L121.72 0L121.72-6.06L123.76-6.06L123.76-6.78L118.80-6.78L118.80-6.06ZM127.10 0.12C127.53 0.12 127.92 0.04 128.28-0.12C128.63-0.29 128.94-0.53 129.20-0.83C129.46-1.14 129.66-1.51 129.80-1.95C129.94-2.39 130.01-2.88 130.01-3.42C130.01-3.96 129.94-4.44 129.80-4.87C129.66-5.30 129.46-5.67 129.20-5.97C128.94-6.27 128.63-6.50 128.28-6.66C127.92-6.82 127.53-6.90 127.10-6.90C126.68-6.90 126.29-6.83 125.93-6.67C125.58-6.51 125.27-6.28 125.02-5.98C124.76-5.68 124.56-5.31 124.42-4.88C124.28-4.45 124.21-3.97 124.21-3.42C124.21-2.88 124.28-2.39 124.42-1.95C124.56-1.51 124.76-1.14 125.02-0.83C125.27-0.53 125.58-0.29 125.93-0.12C126.29 0.04 126.68 0.12 127.10 0.12ZM127.10-0.63C126.80-0.63 126.53-0.70 126.28-0.83C126.04-0.96 125.83-1.15 125.65-1.39C125.48-1.63 125.34-1.93 125.24-2.27C125.15-2.61 125.10-2.99 125.10-3.42C125.10-3.84 125.15-4.22 125.24-4.56C125.34-4.90 125.48-5.18 125.65-5.42C125.83-5.65 126.04-5.83 126.28-5.96C126.53-6.09 126.80-6.15 127.10-6.15C127.41-6.15 127.68-6.09 127.93-5.96C128.17-5.83 128.38-5.65 128.56-5.42C128.73-5.18 128.87-4.90 128.96-4.56C129.06-4.22 129.11-3.84 129.11-3.42C129.11-2.99 129.06-2.61 128.96-2.27C128.87-1.93 128.73-1.63 128.56-1.39C128.38-1.15 128.17-0.96 127.93-0.83C127.68-0.70 127.41-0.63 127.10-0.63ZM133.83 0.12C134.26 0.12 134.65 0.04 135.01-0.12C135.36-0.29 135.67-0.53 135.93-0.83C136.19-1.14 136.39-1.51 136.53-1.95C136.67-2.39 136.74-2.88 136.74-3.42C136.74-3.96 136.67-4.44 136.53-4.87C136.39-5.30 136.19-5.67 135.93-5.97C135.67-6.27 135.36-6.50 135.01-6.66C134.65-6.82 134.26-6.90 133.83-6.90C133.41-6.90 133.02-6.83 132.66-6.67C132.31-6.51 132.00-6.28 131.75-5.98C131.49-5.68 131.29-5.31 131.15-4.88C131.01-4.45 130.94-3.97 130.94-3.42C130.94-2.88 131.01-2.39 131.15-1.95C131.29-1.51 131.49-1.14 131.75-0.83C132.00-0.53 132.31-0.29 132.66-0.12C133.02 0.04 133.41 0.12 133.83 0.12ZM133.83-0.63C133.53-0.63 133.26-0.70 133.01-0.83C132.77-0.96 132.56-1.15 132.38-1.39C132.21-1.63 132.07-1.93 131.97-2.27C131.88-2.61 131.83-2.99 131.83-3.42C131.83-3.84 131.88-4.22 131.97-4.56C132.07-4.90 132.21-5.18 132.38-5.42C132.56-5.65 132.77-5.83 133.01-5.96C133.26-6.09 133.53-6.15 133.83-6.15C134.14-6.15 134.41-6.09 134.66-5.96C134.90-5.83 135.11-5.65 135.29-5.42C135.46-5.18 135.60-4.90 135.69-4.56C135.79-4.22 135.84-3.84 135.84-3.42C135.84-2.99 135.79-2.61 135.69-2.27C135.60-1.93 135.46-1.63 135.29-1.39C135.11-1.15 134.90-0.96 134.66-0.83C134.41-0.70 134.14-0.63 133.83-0.63ZM138.06-6.78L138.06 0L141.89 0L141.89-0.73L138.92-0.73L138.92-6.78ZM142.95-6.78L142.95 0L143.81 0L143.81-2.15L144.98-3.52L147.01 0L147.97 0L145.52-4.20L147.64-6.78L146.66-6.78L143.84-3.38L143.81-3.38L143.81-6.78ZM148.80-6.78L148.80 0L149.66 0L149.66-6.78ZM152.80-6.06L152.80 0L153.66 0L153.66-6.06L155.71-6.06L155.71-6.78L150.75-6.78L150.75-6.06Z"/></g></g></g></g></mask></svg>